<?xml version="1.0" encoding="utf-8"?>
<!-- Generator: Adobe Illustrator 26.5.2, SVG Export Plug-In . SVG Version: 6.00 Build 0)  -->
<svg version="1.1" id="Layer_1" xmlns="http://www.w3.org/2000/svg" xmlns:xlink="http://www.w3.org/1999/xlink" x="0px" y="0px"
	 viewBox="0 0 240.9 88.8" style="enable-background:new 0 0 240.9 88.8;" xml:space="preserve">
<style type="text/css">
	.st0{fill:#DEE0E1;}
</style>
<g>
	<path class="st0" d="M21.6,5.9c8.2,0,14.7,1.7,19.4,5.1c4.8,3.4,7.2,8.5,7.2,15.4c0,4.5-1,8.4-3,11.6c-2,3.2-4.9,5.7-8.5,7.5
		c-3.6,1.8-7.9,2.7-12.9,2.9l-1.7-6.2c5.7,0.1,10.8,1,15.4,2.8c4.5,1.8,8.1,4.4,10.8,7.7c2.7,3.3,4,7.2,4,11.7
		c0,4.1-0.8,7.7-2.3,10.6c-1.5,3-3.6,5.4-6.2,7.2c-2.6,1.8-5.5,3.2-8.8,4.1c-3.3,0.9-6.7,1.3-10.2,1.3H0V5.9H21.6z M23.8,41.1
		c4.2,0,7.3-1.2,9.2-3.6c1.9-2.4,2.9-5.3,2.9-8.7c0-3.9-1.2-6.8-3.7-8.7c-2.4-1.9-5.8-2.8-10.1-2.8H11.9v23.8H23.8z M24.2,76.3
		c2.9,0,5.6-0.4,7.9-1.3c2.4-0.9,4.2-2.2,5.6-3.9c1.4-1.8,2.1-4,2.1-6.7c0-3-0.8-5.3-2.4-7c-1.6-1.7-3.7-2.9-6.2-3.7
		c-2.6-0.7-5.1-1.1-7.8-1.1H11.9v23.8H24.2z"/>
	<path class="st0" d="M190.8,88.7c-4.4,0-8.4-1.1-11.9-3.2c-3.5-2.1-6.3-5.1-8.3-9c-2-3.9-3-8.3-3-13.3c0-5.3,1.1-9.7,3.3-13.5
		c2.2-3.7,5.1-6.6,8.9-8.6c3.8-2,8-3,12.6-3c3.5,0,6.9,0.7,10.2,2.2c3.3,1.5,5.8,3.5,7.6,6.2l-0.3,3.9V0h11.6v87.5h-11.7V76.3
		l1.2,2.9c-2.3,2.7-5.2,5-8.6,6.8C198.9,87.8,195.1,88.7,190.8,88.7z M194.4,78.8c2.6,0,4.9-0.5,7-1.4c2.1-0.9,3.8-2.2,5.2-3.9
		c1.4-1.7,2.4-3.7,3-5.9v-9.5c-0.6-2.1-1.6-3.9-3-5.5c-1.4-1.6-3.2-2.8-5.3-3.8c-2.1-0.9-4.4-1.4-6.9-1.4c-2.8,0-5.3,0.7-7.6,2
		c-2.3,1.4-4.1,3.2-5.5,5.5c-1.4,2.3-2,5-2,8.1c0,2.9,0.7,5.6,2,8c1.4,2.4,3.2,4.3,5.5,5.7C189.2,78.1,191.7,78.8,194.4,78.8z"/>
	<path class="st0" d="M227.5,23.4c0-1.8,0.7-3.3,2.2-4.5c1.5-1.2,3-1.8,4.7-1.8c1.7,0,3.2,0.6,4.5,1.8c1.4,1.2,2,2.7,2,4.5
		s-0.7,3.3-2,4.5c-1.4,1.2-2.9,1.8-4.5,1.8c-1.7,0-3.2-0.6-4.7-1.8C228.3,26.7,227.5,25.2,227.5,23.4z M228.2,40.4h11.6v47.1h-11.6
		V40.4z"/>
</g>
<g>
	<path class="st0" d="M160,54c-1.3-3.1-3.1-6-5.6-8.4c-2.4-2.4-5.2-4.3-8.4-5.6c-3-1.2-6.2-1.9-9.5-1.9c-3.3,0-6.5,0.6-9.5,1.9
		c-3.1,1.3-6,3.1-8.4,5.6l-0.1,0.1l-2.5,2.5l7.1,7.7l2.9-2.9c5.8-5.7,15.1-5.7,20.9,0.1c2.8,2.8,4.3,6.5,4.3,10.5s-1.5,7.7-4.3,10.5
		c-5.8,5.8-15.1,5.8-20.9,0.1l-25.9-28.3l-0.1-0.1l-0.1-0.1c-2.4-2.4-5.2-4.3-8.4-5.6c-3-1.2-6.2-1.9-9.5-1.9
		c-3.3,0-6.5,0.6-9.5,1.9c-3.1,1.3-6,3.1-8.4,5.6C61.9,48,60,50.8,58.7,54c-1.2,3-1.9,6.2-1.9,9.5c0,3.3,0.6,6.5,1.9,9.5
		c1.3,3.1,3.1,6,5.6,8.4c2.4,2.4,5.2,4.3,8.4,5.6c3,1.2,6.2,1.9,9.5,1.9c3.3,0,6.5-0.6,9.5-1.9c3.1-1.3,6-3.1,8.4-5.6l0.1-0.1
		l2.4-2.9l-6.4-7.6L92.6,74c-5.8,5.7-15.1,5.7-20.9-0.1c-5.8-5.8-5.8-15.2,0-20.9c5.8-5.8,15.1-5.8,20.9-0.1l25.9,28.3l0.1,0.1
		l0.1,0.1c2.4,2.4,5.2,4.3,8.4,5.6c3,1.2,6.2,1.9,9.5,1.9c3.3,0,6.5-0.6,9.5-1.9c3.1-1.3,6-3.1,8.4-5.6c2.4-2.4,4.3-5.2,5.6-8.4
		c1.2-3,1.9-6.2,1.9-9.5S161.2,57,160,54z"/>
</g>
</svg>
